<svg width="43" height="43" viewBox="0 0 43 43" fill="none" xmlns="http://www.w3.org/2000/svg">
<path fill-rule="evenodd" clip-rule="evenodd" d="M9.2193 33.7794C7.57625 32.1662 6.26907 30.2436 5.37328 28.1224C4.47748 26.0012 4.01082 23.7236 4.00024 21.4211C3.98966 19.1185 4.43537 16.8367 5.31164 14.7074C6.1879 12.5781 7.47735 10.6435 9.10551 9.0153C10.7337 7.38714 12.6683 6.0977 14.7976 5.22143C16.9269 4.34517 19.2087 3.89945 21.5113 3.91003C23.8138 3.92061 26.0914 4.38728 28.2126 5.28307C30.3338 6.17887 32.2564 7.48604 33.8696 9.12909C37.0889 12.4082 38.8832 16.8258 38.8621 21.4211C38.841 26.0163 37.0062 30.4173 33.7568 33.6666C30.5075 36.916 26.1065 38.7508 21.5113 38.7719C16.916 38.793 12.4984 36.9987 9.2193 33.7794ZM6.37669 6.2838C4.36459 8.27144 2.76536 10.6373 1.67102 13.2453C0.576674 15.8533 0.00881189 18.652 0.000101745 21.4803C-0.0086084 24.3085 0.542005 27.1106 1.62026 29.7253C2.69852 32.34 4.28315 34.7157 6.28297 36.7157C8.28279 38.7157 10.6583 40.3005 13.2729 41.379C15.8875 42.4575 18.6896 43.0084 21.5179 42.9999C24.3461 42.9914 27.1448 42.4238 29.7529 41.3297C32.361 40.2356 34.7271 38.6366 36.7149 36.6247C40.7383 32.6012 42.9987 27.1442 42.9987 21.4542C42.9987 15.7642 40.7383 10.3072 36.7149 6.2838C32.6914 2.26035 27.2345 4.23939e-08 21.5444 0C15.8544 -4.23939e-08 10.3975 2.26035 6.374 6.2838H6.37669ZM16.2615 13.3287C15.8802 12.9734 15.3759 12.78 14.8549 12.7892C14.3338 12.7984 13.8366 13.0094 13.4681 13.3779C13.0996 13.7464 12.8886 14.2436 12.8794 14.7646C12.8702 15.2857 13.0636 15.79 13.4189 16.1713L18.7018 21.4542L13.4189 26.7372C13.2212 26.9213 13.0628 27.1434 12.9528 27.3901C12.8429 27.6368 12.7838 27.9031 12.779 28.1732C12.7743 28.4433 12.8239 28.7115 12.9251 28.9619C13.0262 29.2124 13.1768 29.4399 13.3678 29.6309C13.5588 29.8219 13.7863 29.9724 14.0367 30.0736C14.2872 30.1747 14.5554 30.2244 14.8255 30.2196C15.0955 30.2149 15.3619 30.1558 15.6086 30.0458C15.8553 29.9359 16.0773 29.7774 16.2615 29.5798L21.5444 24.2968L26.8274 29.5798C27.0115 29.7774 27.2336 29.9359 27.4803 30.0458C27.727 30.1558 27.9933 30.2149 28.2634 30.2196C28.5335 30.2244 28.8017 30.1747 29.0521 30.0736C29.3026 29.9724 29.5301 29.8219 29.7211 29.6309C29.9121 29.4399 30.0626 29.2124 30.1638 28.9619C30.2649 28.7115 30.3146 28.4433 30.3099 28.1732C30.3051 27.9031 30.246 27.6368 30.1361 27.3901C30.0261 27.1434 29.8676 26.9213 29.67 26.7372L24.3871 21.4542L29.67 16.1713C29.8676 15.9871 30.0261 15.7651 30.1361 15.5184C30.246 15.2717 30.3051 15.0053 30.3099 14.7353C30.3146 14.4652 30.2649 14.197 30.1638 13.9465C30.0626 13.6961 29.9121 13.4686 29.7211 13.2776C29.5301 13.0866 29.3026 12.936 29.0521 12.8349C28.8017 12.7337 28.5335 12.6841 28.2634 12.6888C27.9933 12.6936 27.727 12.7527 27.4803 12.8626C27.2336 12.9725 27.0115 13.131 26.8274 13.3287L21.5444 18.6116L16.2615 13.3287Z" fill="black"/>
</svg>
